<svg width="204" height="128" viewBox="0 0 204 128" fill="none" xmlns="http://www.w3.org/2000/svg">
<path d="M160.551 28.1315C161.324 28.1018 162.172 27.0699 162.212 27.0699C162.45 26.8329 161.756 23.4225 163.654 17.5391C164.28 15.5991 166.506 16.963 167.904 16.7517C169.6 16.4955 171.427 16.4461 172.797 16.2943C173.957 16.1656 175.626 15.9461 177.067 16.4064C177.36 16.4999 177.545 16.6691 177.577 16.8469C177.687 17.4523 177.836 18.2909 177.465 19.6396C176.691 22.4494 174.841 25.5699 175.932 26.1753C176.194 26.3205 176.702 26.3205 178.096 26.1522C179.491 25.984 181.703 25.6493 182.98 25.4753C184.581 25.257 185.386 25.056 186.737 24.8705C190.339 24.3762 191.425 24.0875 192.629 23.9374C194.119 23.7515 196.08 23.1383 197.101 23.5178C197.742 23.7559 198.382 24.0829 198.712 24.5455C198.986 24.9293 199.16 25.2561 199.242 25.8894C199.534 28.1196 199.537 28.7121 199.406 29.6592C199.315 30.3191 199.523 31.2256 199.167 33.4753C198.947 34.8676 199.371 36.2732 198.504 36.587C197.293 37.0252 196.197 37.1059 195.371 37.0797L195.342 37.0787C194.737 37.0593 193.841 37.0307 191.459 37.4327C189.912 37.6938 187.197 38.2157 185.605 38.4015C183.584 38.6374 182.536 38.6394 181.137 38.9519C179.252 39.3731 178.051 39.8075 178.053 40.1985C178.055 40.4014 178.127 40.6191 178.22 40.7841C178.312 40.949 178.429 41.1008 178.83 41.0002C179.93 40.7247 181.431 39.7104 183.098 39.5529C185.038 39.3698 187.287 39.4285 188.339 39.4991C189.166 39.5546 192.243 39.8877 194.39 40.9864C195.176 41.3889 196.294 41.6918 197.475 42.6234C199.03 43.8501 200.438 45.1929 201.133 46.3784C201.883 47.6596 202.587 48.5098 202.669 50.6167C202.761 52.9735 203.173 53.6287 202.279 57.0941C201.657 59.508 201.205 60.9476 200.925 61.2759C200.153 62.1804 199.58 63.5421 198.999 64.4321C197.766 66.3242 195.864 68.2131 194.488 69.4721C192.969 70.8616 192.005 71.5052 190.897 72.3479C189.67 73.281 188.839 73.7383 188.093 74.124C186.958 74.7107 186.763 74.7706 185.008 75.2193C184.11 75.1654 173.861 77.2219 168.958 76.3399C168.057 76.1778 166.854 76.3406 165.219 76.0457C164.304 75.8808 163.588 75.8195 163.021 75.2193C162.361 74.5215 161.996 73.821 160.857 71.952C159.942 70.4525 159.237 69.4769 158.99 68.1426C158.807 67.1533 158.501 66.0392 159.326 65.2827C160.683 64.0367 162.462 62.8148 163.797 62.2986C164.603 61.9868 166.518 61.3435 167.942 60.9971L168.065 60.9671C169.576 60.5992 172.007 60.0076 173.861 59.4943C175.05 59.1649 176.655 58.9375 177.468 58.008C177.615 57.8409 177.687 57.5868 177.555 57.4037C177.423 57.2206 177.099 57.0809 176.597 57.0573C174.641 56.9655 173.384 56.79 170.632 57.8337C168.363 58.6942 166.749 59.3317 166.283 59.7362C165.586 60.3416 164.865 61.7794 163.791 61.8978C162.982 61.9868 162.019 61.6482 160.894 61.107C159.975 60.665 158.999 60.0157 158.274 59.5487C157.446 59.0154 156.444 58.4032 155.726 57.8991C154.806 57.2536 153.585 56.4277 153.528 55.4583C153.456 54.214 153.637 52.1381 154.723 49.4455C155.18 48.3106 155.516 47.4188 155.895 46.644C156.317 45.7812 157.245 43.5653 157.948 42.0433C158.372 41.125 160.166 39.7141 159.356 39.35C158.506 38.9673 157.184 39.754 155.726 39.5529C154.402 39.3704 151.242 40.7243 149.446 39.4991C147.847 38.4087 143.519 26.614 156.241 28.1618C156.485 28.1915 156.602 28.2422 157.437 28.2314C158.272 28.2206 159.778 28.1612 160.551 28.1315Z" fill="url(#paint0_linear_66_34)" stroke="#390F0F" stroke-width="2" stroke-linecap="round"/>
<path d="M6.86639 19.8669C8.1954 22.8814 10.1922 26.6853 11.4803 28.1642C10.979 28.7129 10.2144 29.3813 8.58486 31.0123C7.10307 32.7322 6.2313 33.8388 5.26482 35.0976C4.47516 36.1261 2.85718 39.5356 2.35002 42.0798C2.08824 43.393 1.73912 44.431 1.68157 46.0267C1.60913 48.0349 1.2112 49.6126 2.13988 54.1672C2.66489 56.742 3.1917 59.023 4.39268 60.7118C5.68154 62.5243 7.11824 63.9712 8.72257 64.6967L8.87082 64.7638L8.87089 64.7638C11.5689 65.9842 13.0391 66.6491 14.3119 66.6992C16.1516 66.7717 18.2588 67.3272 19.9751 67.4638C21.5164 67.5864 23.53 67.9406 25.6025 67.6295C28.7747 67.1533 30.6321 67.4542 32.7711 67.0328C35.0863 66.5766 37.0799 65.8537 38.5269 65.4549C39.4843 65.1909 41.0138 64.711 43.3588 63.5399C44.6484 62.8958 45.9206 62.5848 47.7331 61.7719C48.8542 61.2691 50.2114 60.85 51.0302 59.9545C52.1104 58.7732 53.8228 56.4889 54.3273 53.8071C54.5432 52.6596 55.5613 50.8576 55.4017 49.0512C55.3063 47.9718 55.3457 46.4762 54.6572 45.2234C53.7256 43.5279 53.0342 42.2103 52.0279 41.3059C51.0431 40.4208 49.3769 39.143 47.6277 38.5338C45.6238 37.836 42.4996 36.9374 41.3133 36.91C40.2862 36.8864 37.6315 37.2912 34.5161 38.3014C32.8285 38.8487 28.721 40.9539 29.842 39.9231C30.5018 39.3163 32.4371 37.9301 33.6282 37.0492C35.4736 35.6843 38.179 34.2133 40.0581 33.1783C41.4983 32.385 43.0628 31.3464 44.1944 30.7153C45.6553 29.9006 47.2772 28.9437 48.1369 27.9655C49.0005 26.9829 50.1521 25.3605 50.8617 23.6127C51.4362 22.1976 52.3817 20.5071 51.7905 18.0865C51.3358 16.2245 50.8878 15.0689 49.8518 13.9789C48.9431 13.0228 48.2044 11.9327 46.3769 11.445C43.3931 10.6485 42.3298 10.5928 40.0599 10.4738L39.9513 10.4681C38.6122 10.3978 37.533 10.438 36.6283 10.7091C34.7851 11.2613 32.7002 11.9319 31.0821 13.1261C29.7215 14.1302 28.214 18.2849 27.2836 16.3493C26.8554 15.4585 25.4197 13.9234 24.744 12.572C24.0017 11.0874 21.4905 7.0911 20.6407 5.73314C19.6344 4.12513 18.9537 3.71778 17.9051 2.99758C16.0013 1.68994 15.8264 1.67716 14.4553 1.57696L14.4216 1.5745C13.4606 1.50421 11.8451 1.46196 10.3313 2.17482C9.1113 2.74932 7.79913 3.43083 6.86639 4.47066C6.00429 5.43174 6.05103 5.73314 4.39268 10.7091C3.97431 11.9644 4.83275 13.168 5.07763 14.3705C5.39034 15.9061 6.30496 18.5934 6.86639 19.8669Z" fill="url(#paint1_linear_66_34)"/>
<path d="M10.8976 28.6717C11.2861 28.3333 11.6745 27.995 12.063 27.6567C10.2596 25.3462 8.85713 22.3775 7.57343 19.5552C7.56367 19.533 7.55376 19.5104 7.54371 19.4872C7.18664 18.6517 6.89171 17.7461 6.62017 16.8518C6.45631 16.308 6.30201 15.7625 6.1599 15.2203C6.07015 14.8767 5.98641 14.5296 5.92229 14.1985C5.74186 13.3269 5.40657 12.6622 5.25372 12.0712C5.13516 11.6338 5.12035 11.2876 5.22284 10.9857C5.82097 9.25272 6.35469 7.33269 6.98322 5.82501C7.1224 5.53263 7.26751 5.33539 7.51865 5.05574C8.07447 4.43407 8.82566 3.93017 9.64689 3.49128C9.98741 3.30901 10.3413 3.13646 10.7038 2.96584C11.4538 2.6119 12.3114 2.44562 13.1978 2.41803C13.5775 2.40577 13.9627 2.41892 14.3577 2.44882C14.6772 2.47313 14.9903 2.49386 15.2313 2.53514C15.473 2.57638 15.6515 2.63915 15.886 2.75798C16.3519 2.99929 16.8826 3.37169 17.4028 3.72893C17.8757 4.05573 18.306 4.34198 18.6531 4.66132C19.1162 5.08084 19.5059 5.61555 19.8747 6.2125C20.3639 7.00368 20.8508 7.79449 21.3341 8.58909C22.1225 9.88958 22.912 11.2045 23.6253 12.5079C23.7168 12.6772 23.8044 12.8435 23.8827 13.0027C24.4986 14.212 25.2865 15.1331 25.9399 16.0543C26.1245 16.3131 26.3078 16.5879 26.3965 16.7758C26.5575 17.053 26.6956 17.5154 27.4748 17.7916C27.8634 17.9053 28.252 17.8139 28.4872 17.7034C28.7212 17.5964 28.8845 17.4681 29.0125 17.3586C29.5144 16.9042 29.7705 16.4989 30.0534 16.1003C30.5887 15.3217 31.0818 14.4985 31.5547 14.0347C31.6001 13.9912 31.6438 13.9543 31.6759 13.9307C33.0483 12.9218 34.7966 12.3092 36.5937 11.764C36.7007 11.7315 36.8081 11.6991 36.9154 11.667C37.674 11.4395 38.5981 11.416 39.5427 11.4506C39.6606 11.455 39.7794 11.4604 39.8988 11.4667C39.9351 11.4686 39.9713 11.4705 40.0075 11.4724C42.0204 11.5429 43.7955 11.7817 45.7048 12.3022C45.8444 12.3383 45.978 12.3735 46.119 12.4111C47.2083 12.6878 47.9301 13.3096 48.8116 14.3268C48.9127 14.4381 49.0172 14.5524 49.127 14.6678C49.9493 15.5057 50.3709 16.5814 50.704 17.8686C50.7436 18.0194 50.7814 18.1697 50.819 18.3237C51.2007 19.7982 50.8555 21.1844 50.1314 22.7683C50.0667 22.9198 50.0007 23.0751 49.9351 23.2365C49.4012 24.5406 48.6127 25.8016 47.7075 26.9242C47.6019 27.0542 47.4945 27.1817 47.3858 27.3054C46.6238 28.1448 45.3927 28.8795 44.2042 29.5623C44.0396 29.6559 43.8739 29.749 43.7073 29.842C42.4344 30.5631 41.2851 31.3248 40.1017 32.0053C39.9264 32.1065 39.751 32.2058 39.5757 32.3024C37.587 33.3995 35.5688 34.4925 33.6253 35.8228C33.4267 35.96 33.2294 36.1004 33.0336 36.2452C31.9651 37.0358 30.8755 37.8106 29.7877 38.665C29.5845 38.827 29.3875 38.9844 29.1651 39.187C29.0949 39.2528 29.0546 39.2885 28.9596 39.3961C28.9203 39.4437 28.8702 39.4964 28.7919 39.6328C28.7726 39.6681 28.7572 39.6971 28.733 39.7548C28.7025 39.8299 28.6704 39.9255 28.6564 40.0575C28.6475 40.1956 28.635 40.3332 28.7427 40.5903C28.8447 40.8234 29.0442 40.9981 29.2013 41.0777C29.4313 41.1933 29.5679 41.1948 29.6754 41.2024C29.7478 41.2049 29.8025 41.2013 29.8523 41.1965C29.9621 41.1843 29.9938 41.176 30.0555 41.1631C30.1571 41.1405 30.2399 41.1155 30.3052 41.0953C30.5848 41.0062 30.8076 40.9162 31.0348 40.825C31.4847 40.642 31.9122 40.4551 32.3392 40.2698C33.1843 39.905 34.0527 39.5128 34.8246 39.2527C34.844 39.2464 34.8633 39.2401 34.8827 39.2339C36.9809 38.57 39.307 37.9787 41.2888 37.9097C41.2893 37.9097 41.2898 37.9097 41.2902 37.9098C43.0609 38.0914 45.2866 38.8046 47.2441 39.4592C47.2624 39.4655 47.2807 39.4719 47.2988 39.4782C48.7115 39.9793 50.0812 40.9255 51.2862 41.9842C51.311 42.0063 51.3355 42.0281 51.3594 42.0496C52.2834 42.8805 52.9684 44.2407 53.7108 45.5775C53.734 45.6197 53.7573 45.6622 53.7808 45.705C54.2496 46.5437 54.3134 47.6596 54.3914 48.9648C54.3957 49.0218 54.4004 49.0808 54.4056 49.1392C54.5266 50.3899 53.8882 51.6667 53.3863 53.4255C53.3718 53.4873 53.357 53.5557 53.3446 53.6222C52.9635 55.6191 51.8276 57.537 50.4207 59.1371C50.3794 59.1836 50.334 59.234 50.2922 59.2796C49.7461 59.8877 48.6771 60.2841 47.5429 60.7633C47.4704 60.7945 47.3973 60.8266 47.3239 60.8595C46.0272 61.4603 44.651 61.8418 43.1698 62.5203C43.0838 62.5608 42.9979 62.6023 42.912 62.6452C41.4864 63.3559 40.0373 63.9793 38.5483 64.4097C38.4526 64.4374 38.3572 64.4643 38.2611 64.4908C36.3975 65.0275 34.6938 65.6146 32.9233 65.981C32.8081 66.0054 32.6933 66.0288 32.5778 66.0516C30.591 66.4371 28.2003 66.2237 25.8709 66.5812C25.7295 66.6003 25.5952 66.6194 25.454 66.6406C23.8998 66.8788 22.2712 66.6931 20.518 66.5084C20.3651 66.4935 20.2108 66.4794 20.0544 66.4669C18.4512 66.332 16.7345 65.8857 14.8837 65.7322C14.7082 65.7182 14.5303 65.7071 14.3512 65.7C12.9767 65.6167 11.2533 64.7169 9.63077 64.0099C9.51312 63.9568 9.40099 63.9061 9.28293 63.8527C9.23348 63.8303 9.18406 63.8079 9.13464 63.7856C7.75564 63.1589 6.56157 61.9371 5.54467 60.5926C5.43046 60.4412 5.31828 60.2879 5.20763 60.1323C4.15386 58.6428 3.68232 56.6267 3.25146 54.605C3.2069 54.3929 3.16332 54.1812 3.11972 53.9674C2.61616 51.5463 2.39008 49.275 2.64251 46.7967C2.65807 46.5565 2.67196 46.3114 2.68092 46.0627C2.70967 45.0573 2.91489 44.1079 3.16971 43.0231C3.22513 42.7791 3.28006 42.5296 3.33073 42.2753C3.60464 40.9409 4.1125 39.5677 4.69008 38.2566C4.99402 37.5743 5.32585 36.8947 5.68757 36.2755C5.80968 36.0675 5.945 35.8539 6.058 35.7066C6.94708 34.5441 7.84762 33.4187 8.79176 32.309C8.97432 32.0938 9.15801 31.8791 9.34246 31.665L9.29228 31.7191C10.0337 30.975 10.778 30.2593 11.5494 29.5171C11.7678 29.3047 11.9897 29.0884 12.2185 28.8387C11.7264 28.389 11.2342 27.9393 10.7421 27.4896C10.5687 27.6792 10.3661 27.8783 10.1568 28.0816C9.40558 28.8044 8.62785 29.5522 7.87744 30.3055L7.82726 30.3596C7.63983 30.5771 7.45285 30.7956 7.26665 31.0151C6.30521 32.1449 5.36869 33.3154 4.47164 34.4886C4.26503 34.7605 4.11091 35.0128 3.96326 35.2622C3.54037 35.9874 3.19089 36.7085 2.86226 37.4447C2.24184 38.8599 1.69795 40.2991 1.36932 41.8843C1.32365 42.1135 1.27292 42.3444 1.21935 42.5803C0.975089 43.6161 0.712871 44.8101 0.682217 45.9906C0.674224 46.2128 0.661577 46.4378 0.646687 46.6675C0.380005 49.1594 0.633232 51.9047 1.16004 54.367C1.20415 54.5833 1.24851 54.7988 1.29418 55.0162C1.74878 57.0841 2.19602 59.3019 3.57773 61.2914C3.69876 61.4616 3.82206 61.6301 3.94834 61.7974C5.07914 63.2775 6.42382 64.7355 8.31051 65.6079C8.35991 65.6302 8.40933 65.6526 8.45875 65.6749C8.57678 65.7283 8.68908 65.7791 8.80715 65.8325C10.4885 66.5312 12.0092 67.4959 14.2726 67.6985C14.4212 67.7043 14.5723 67.7137 14.7242 67.7258C16.3494 67.854 18.0263 68.2944 19.8958 68.4606C20.0362 68.4718 20.1792 68.4849 20.3244 68.499C22.0091 68.6724 23.8639 68.9053 25.7509 68.6184C25.882 68.5987 26.0066 68.581 26.1377 68.5633C28.2933 68.2214 30.4841 68.4654 32.9644 68.0139C33.0893 67.9893 33.213 67.964 33.337 67.9378C35.2292 67.546 37.0665 66.9142 38.7926 66.4189C38.8963 66.3903 39.0005 66.3609 39.1054 66.3305C40.7546 65.8532 42.3097 65.1799 43.8056 64.4345C43.8769 64.3989 43.9485 64.3642 44.0209 64.3302C45.2404 63.7633 46.737 63.3313 48.1424 62.6843C48.2053 62.6561 48.2697 62.6279 48.3351 62.5997C49.3633 62.1354 50.6624 61.7836 51.7682 60.6293C51.8165 60.5765 51.8687 60.5186 51.9161 60.4651C53.5083 58.6428 54.819 56.502 55.3101 53.992C55.3164 53.9583 55.3246 53.9196 55.3335 53.8818C55.6622 52.6072 56.5604 50.9306 56.3978 48.9632C56.3936 48.9151 56.3895 48.8647 56.3857 48.8145C56.3004 47.6303 56.2941 46.1357 55.5336 44.7418C55.5104 44.6994 55.4872 44.6573 55.4642 44.6153C54.7124 43.2944 54.0501 41.8185 52.6963 40.5621C52.6692 40.5377 52.6416 40.5131 52.6135 40.4882C51.2535 39.3025 49.7713 38.2431 47.9566 37.5894C47.9375 37.5828 47.9182 37.5761 47.8989 37.5694C45.7648 36.8783 43.8634 36.176 41.3363 35.9103C41.3354 35.9103 41.3346 35.9102 41.3337 35.9102C38.7184 36.0085 36.5466 36.6293 34.269 37.3304C34.2485 37.337 34.2281 37.3436 34.2077 37.3502C33.2276 37.6831 32.3998 38.0674 31.5416 38.4357C31.1171 38.62 30.6947 38.8043 30.2836 38.9714C30.0814 39.0533 29.8706 39.1353 29.7084 39.1864C29.6733 39.1975 29.6328 39.2085 29.6231 39.2104C29.6205 39.2113 29.6155 39.2107 29.6539 39.2064C29.6731 39.2046 29.7009 39.2022 29.7487 39.2038C29.8201 39.2099 29.9291 39.2061 30.1377 39.3104C30.28 39.3822 30.469 39.5465 30.5651 39.7665C30.6665 40.0087 30.6539 40.1362 30.6461 40.2603C30.6133 40.5042 30.5569 40.5641 30.54 40.6046C30.4894 40.6914 30.4785 40.6953 30.4739 40.7025C30.4684 40.7086 30.4882 40.6871 30.5189 40.6592C30.6615 40.5286 30.8467 40.3779 31.0303 40.2321C32.0473 39.4329 33.1412 38.653 34.2228 37.8532C34.3986 37.7231 34.5789 37.5949 34.7622 37.4682C36.5693 36.2299 38.5533 35.1492 40.5406 34.0542C40.7298 33.95 40.9166 33.8442 41.1017 33.7374C42.3397 33.0244 43.5233 32.2433 44.6814 31.5887C44.8517 31.4937 45.0225 31.3978 45.1935 31.3005C46.4442 30.5653 47.7219 29.8792 48.8881 28.6256C49.0157 28.4804 49.1391 28.3338 49.2596 28.1856C50.2842 26.9109 51.1515 25.5357 51.7882 23.9888C51.8454 23.8481 51.907 23.703 51.9707 23.554C52.71 22.0003 53.3091 19.7973 52.7619 17.8492C52.7221 17.686 52.6815 17.5246 52.6383 17.3604C52.297 16.0053 51.7019 14.4223 50.5766 13.29C50.4836 13.1921 50.3894 13.0894 50.2927 12.9828C49.4885 12.0142 48.1373 10.8125 46.6348 10.4788C46.4893 10.44 46.3512 10.4036 46.2063 10.3661C44.2741 9.82799 42.0819 9.53487 40.1122 9.47516C40.076 9.47326 40.0398 9.47136 40.0036 9.46946C39.8753 9.46273 39.7467 9.45683 39.6176 9.45199C38.5846 9.41972 37.4932 9.41476 36.3413 9.75115C36.2324 9.7838 36.1226 9.81685 36.0126 9.85023C34.1628 10.4181 32.2194 11.0591 30.4882 12.3215C30.3709 12.4081 30.2653 12.5005 30.173 12.5887C29.3386 13.4367 28.9225 14.2433 28.4101 14.9784C28.1705 15.3335 27.8993 15.702 27.7136 15.8646C27.6739 15.9011 27.6398 15.9181 27.6701 15.9032C27.693 15.8902 27.8447 15.8419 28.0098 15.8912C28.3377 16.0309 28.2104 16.0522 28.1708 15.9229C27.959 15.4987 27.744 15.2078 27.5328 14.9106C26.8129 13.9232 26.0662 13.0327 25.6053 12.1414C25.5063 11.9465 25.408 11.7662 25.3068 11.5844C24.5322 10.2116 23.7163 8.92443 22.9024 7.62054C22.4054 6.82746 21.9044 6.03813 21.4067 5.25378C20.9862 4.59143 20.4948 3.91315 19.8514 3.33681C19.3686 2.90152 18.8574 2.5745 18.4075 2.26622C17.8644 1.90187 17.352 1.53264 16.68 1.18479C15.9792 0.79562 15.0717 0.738412 14.4856 0.700182C14.0489 0.66856 13.5953 0.653213 13.1408 0.668475C12.0791 0.703043 10.9785 0.903102 9.95881 1.3838C9.58264 1.56099 9.20142 1.74649 8.8218 1.94966C7.9082 2.44026 6.98087 3.03485 6.21413 3.88557C5.9292 4.19356 5.59901 4.63595 5.40222 5.06679C4.60811 6.97932 4.17771 8.65721 3.56252 10.4324C3.31322 11.1577 3.39949 11.9322 3.56542 12.5262C3.79089 13.3385 4.11713 13.9879 4.23297 14.5425C4.31617 14.9314 4.41511 15.3036 4.51905 15.6693C4.68329 16.2446 4.86865 16.8045 5.0646 17.3611C5.39104 18.28 5.73207 19.1793 6.12571 20.1016C6.13701 20.1277 6.14822 20.1534 6.15935 20.1786C7.50729 23.1114 8.79825 25.9683 10.8976 28.6717ZM12.063 27.6567L10.8976 28.6717L10.7421 27.4896L12.2185 28.8387L12.666 28.349L12.063 27.6567Z" fill="#390F0F"/>
<path d="M144.9 24.4855C143.627 24.5806 142.102 24.4024 140.749 24.5813C140.743 24.5822 140.737 24.583 140.731 24.5838C135.12 25.3258 134.174 25.4912 133.754 25.5964C131.93 26.0523 131.146 26.8732 130.263 27.5659C130.063 27.7232 129.86 28.0022 129.668 28.3504C129.012 29.5385 128.483 31.5316 128.637 32.2412C128.902 33.459 129.086 35.1744 130.263 35.411C131.916 35.743 133.434 35.6744 134.675 35.5756C136.166 35.4568 138.162 35.5024 140.951 35.2894C142.506 35.1706 144.408 34.997 146.032 34.8357C148.424 34.5982 150.487 34.8452 151.85 34.3821C153.616 33.7824 155.1 33.1214 155.878 31.8748C156.234 31.3038 156.593 30.5734 156.303 29.9185C155.752 28.6764 155 27.5098 153.581 26.3895C152.555 25.5795 150.462 24.7339 148.596 24.5563C147.348 24.4375 145.735 24.423 144.9 24.4855Z" fill="url(#paint2_linear_66_34)"/>
<path d="M127.941 39.252C126.987 40.042 126.093 41.3449 126.06 42.4483C126.06 42.4483 125.666 49.3036 125.869 50.7021C126.188 52.8959 127.235 56.2841 128.14 57.094C129.285 58.1194 130.54 59.9983 135.875 61.2913C137.537 61.6942 138.295 61.9347 139.445 61.8838C140.496 61.8373 141.639 61.8401 142.76 61.7643C144.518 61.6455 147.09 61.9382 148.174 61.7643C149.521 61.5482 151.664 61.5771 153.065 61.1675C154.378 60.784 155.6 60.4162 156.522 59.6392C157.429 58.875 158.448 57.8054 159.073 56.2504C159.573 55.0082 159.944 53.9506 159.761 52.6705C159.524 51.004 159.468 49.813 158.495 49.0971C158.043 48.7644 157.068 48.1484 155.676 48.0253C153.791 47.8585 152.546 47.7186 150.837 47.9315C149.884 48.0503 148.487 48.7181 145.605 48.695L145.436 48.6937C142.245 48.6683 140.783 48.6567 139.795 47.905C138.914 47.2346 138.094 46.3415 137.746 45.206C137.196 43.4136 137.565 41.012 136.481 39.5547C135.665 38.4564 133.958 37.1343 132.306 37.3408C130.937 37.5118 129.13 38.2671 127.941 39.252Z" fill="url(#paint3_linear_66_34)"/>
<path d="M143.142 18.4821C144.11 20.0032 144.454 19.8202 145.326 20.659C145.646 20.9667 145.975 21.2685 146.333 21.5306C146.869 21.9229 147.248 22.2362 147.801 22.5106C149.28 23.064 150.583 23.3509 151.461 23.3883C151.72 23.3992 151.977 23.365 152.226 23.2944C152.741 23.1479 153.201 22.9203 153.517 22.4769L153.551 22.4294C154.026 21.7641 154.709 20.8081 154.707 19.6842C154.704 18.0864 154.054 15.5849 152.723 13.3889C151.544 11.4433 149.813 8.71324 147.994 7.75975C145.591 6.5004 143.43 5.86198 141.965 6.86175C141.442 7.2188 140.799 7.75834 140.728 8.75292C140.634 10.0867 140.652 11.7483 141.065 13.2122C141.638 15.2414 142.161 16.9385 143.142 18.4821Z" fill="url(#paint4_linear_66_34)"/>
<path d="M119.164 7.75975C118.615 9.20013 117.823 16.2313 116.019 15.4217C114.149 14.5824 110.776 15.0869 109.536 15.1591C108.481 15.2207 106.869 15.562 104.864 16.4915C103.438 17.1527 102.238 17.9948 101.544 19.1368C100.488 20.8748 101.087 22.6172 101.183 23.6468C101.299 24.8918 102.132 26.4782 102.875 27.7254C103.49 28.7579 104.965 30.8978 107.088 30.0888C110.502 28.7878 113.177 28.9362 112.796 29.8999C111.869 32.2412 110.727 36.7391 110.296 37.8381C109.536 39.777 109.162 41.5538 108.678 43.8536C108.317 45.5682 104.525 59.1812 104.404 60.1371C104.247 61.3752 104.404 65.9933 110.296 66.6298C120.393 67.7204 124.635 43.8334 126.752 35.9849C127.184 34.381 127.705 32.0766 127.944 30.692C128.123 29.6483 129.017 28.9991 129.668 28.3504C129.86 28.0022 130.063 27.7232 130.263 27.5659C131.146 26.8732 131.93 26.0523 133.754 25.5964C134.174 25.4912 135.12 25.3258 140.731 24.5838C141.424 23.3973 142.778 19.3883 142.374 17.8739C142.062 16.704 141.655 15.5042 140.725 14.6783C139.626 13.7016 138.496 13.238 137.626 13.1556C136.861 13.0834 136.084 13.4217 132.71 13.8232C132.145 13.8905 130.904 15.5224 131.018 15.1591C131.28 14.3255 132.777 9.51451 132.71 8.75292C132.591 7.40484 131.643 5.63619 130.562 4.62372C129.335 3.47385 127.766 2.73306 126.39 2.49339C125.026 2.25583 122.306 3.01193 120.988 4.24145C119.621 5.51582 119.838 5.99277 119.164 7.75975Z" fill="url(#paint5_linear_66_34)"/>
<path d="M147.994 7.75975C149.813 8.71324 151.544 11.4433 152.723 13.3889C154.054 15.5849 154.704 18.0864 154.707 19.6842C154.999 19.9761 155.949 19.7178 156.212 19.9568C156.44 20.152 156.733 20.3574 157.066 20.5454C157.88 21.0058 158.878 20.9985 159.709 20.5693C160.363 20.2317 161.022 19.7493 161.363 19.091C162.008 17.846 162.715 16.3122 162.505 14.5824C162.386 13.6043 162.399 10.8453 160.02 7.13723C159.427 6.21275 158.97 5.41554 157.819 4.72873C155.033 3.06582 153.712 2.46198 152.198 2.56566C151.121 2.63936 149.537 3.16671 148.789 4.24145C147.888 5.53557 148.042 6.18843 147.994 7.75975Z" fill="url(#paint6_linear_66_34)"/>
<path d="M140.731 24.5838C141.424 23.3973 142.778 19.3883 142.374 17.8739C142.062 16.704 141.655 15.5042 140.725 14.6783C139.626 13.7016 138.496 13.238 137.626 13.1556C136.861 13.0834 136.084 13.4217 132.71 13.8232C132.145 13.8905 130.904 15.5224 131.018 15.1591C131.28 14.3255 132.777 9.51451 132.71 8.75292C132.591 7.40484 131.643 5.63619 130.562 4.62372C129.335 3.47385 127.766 2.73306 126.39 2.49339C125.026 2.25583 122.306 3.01193 120.988 4.24145C119.621 5.51582 119.838 5.99277 119.164 7.75975C118.615 9.20013 117.823 16.2313 116.019 15.4217C114.149 14.5824 110.776 15.0869 109.536 15.1591C108.481 15.2207 106.869 15.562 104.864 16.4915C103.438 17.1527 102.238 17.9948 101.544 19.1368C100.488 20.8748 101.087 22.6172 101.183 23.6468C101.299 24.8918 102.132 26.4782 102.875 27.7254C103.49 28.7579 104.965 30.8978 107.088 30.0888C110.502 28.7879 113.177 28.9362 112.796 29.8999C111.869 32.2412 110.727 36.7391 110.296 37.8381C109.536 39.777 109.162 41.5538 108.678 43.8536C108.317 45.5682 104.525 59.1812 104.404 60.1371C104.247 61.3752 104.404 65.9933 110.296 66.6298C120.393 67.7204 124.635 43.8334 126.752 35.9849C127.184 34.381 127.705 32.0766 127.944 30.692C128.123 29.6483 129.017 28.9991 129.668 28.3504M140.731 24.5838C140.729 24.5868 140.727 24.5898 140.725 24.5929M140.731 24.5838C135.12 25.3258 134.174 25.4912 133.754 25.5964C131.93 26.0523 131.146 26.8732 130.263 27.5659M140.731 24.5838C140.737 24.583 140.743 24.5822 140.749 24.5813C142.102 24.4024 143.628 24.5806 144.9 24.4855C145.735 24.423 147.348 24.4375 148.596 24.5563C150.462 24.7339 152.555 25.5795 153.581 26.3895C155 27.5098 155.752 28.6764 156.303 29.9185C156.593 30.5734 156.234 31.3038 155.878 31.8748C155.1 33.1214 153.616 33.7825 151.85 34.3821C150.487 34.8452 148.424 34.5982 146.032 34.8357C144.408 34.997 142.506 35.1706 140.951 35.2894C138.162 35.5024 136.166 35.4568 134.675 35.5756C133.434 35.6744 131.916 35.743 130.263 35.411C129.086 35.1744 128.902 33.459 128.637 32.2412C128.483 31.5316 129.012 29.5385 129.668 28.3504M130.263 27.5659C130.063 27.7232 129.86 28.0022 129.668 28.3504M130.263 27.5659C130.14 27.843 129.922 28.0967 129.668 28.3504M147.994 7.75975C145.591 6.5004 143.43 5.86198 141.965 6.86175C141.442 7.2188 140.799 7.75834 140.728 8.75292C140.634 10.0867 140.652 11.7483 141.065 13.2122C141.638 15.2414 142.161 16.9385 143.142 18.4821C144.11 20.0032 144.454 19.8202 145.326 20.659C145.646 20.9667 145.975 21.2685 146.333 21.5306C146.869 21.9229 147.248 22.2362 147.801 22.5106C149.28 23.064 150.583 23.3509 151.461 23.3883C151.72 23.3992 151.977 23.365 152.226 23.2944C152.741 23.1479 153.201 22.9203 153.517 22.4769L153.551 22.4294C154.026 21.7641 154.709 20.8081 154.707 19.6842M147.994 7.75975C149.813 8.71324 151.544 11.4433 152.723 13.3889C154.054 15.5849 154.704 18.0864 154.707 19.6842M147.994 7.75975C148.042 6.18843 147.888 5.53557 148.789 4.24145C149.537 3.16671 151.121 2.63936 152.198 2.56566C153.712 2.46198 155.033 3.06582 157.819 4.72873C158.97 5.41554 159.427 6.21275 160.02 7.13723C162.399 10.8453 162.386 13.6043 162.505 14.5824C162.715 16.3122 162.008 17.846 161.363 19.091C161.022 19.7493 160.363 20.2317 159.709 20.5693C158.878 20.9985 157.88 21.0058 157.066 20.5454C156.733 20.3574 156.44 20.152 156.212 19.9568C155.949 19.7178 154.999 19.9761 154.707 19.6842M126.06 42.4483C126.093 41.3449 126.987 40.042 127.941 39.252C129.13 38.2671 130.937 37.5118 132.306 37.3408C133.958 37.1343 135.665 38.4564 136.481 39.5547C137.565 41.012 137.196 43.4136 137.746 45.206C138.094 46.3415 138.914 47.2346 139.795 47.905C140.783 48.6567 142.245 48.6683 145.436 48.6937L145.605 48.695C148.487 48.7181 149.884 48.0503 150.837 47.9315C152.546 47.7186 153.791 47.8585 155.676 48.0253C157.068 48.1484 158.043 48.7644 158.495 49.0971C159.468 49.813 159.524 51.004 159.761 52.6705C159.944 53.9506 159.573 55.0082 159.073 56.2504C158.448 57.8054 157.429 58.875 156.522 59.6392C155.6 60.4162 154.378 60.784 153.065 61.1675C151.664 61.5771 149.521 61.5482 148.174 61.7643C147.09 61.9382 144.518 61.6455 142.76 61.7643C141.639 61.8401 140.496 61.8373 139.445 61.8838C138.295 61.9347 137.537 61.6942 135.875 61.2913C130.54 59.9983 129.285 58.1194 128.14 57.094C127.235 56.2841 126.188 52.8959 125.869 50.7021C125.666 49.3036 126.06 42.4483 126.06 42.4483Z" stroke="#390F0F" stroke-width="2" stroke-linecap="round"/>
<path fill-rule="evenodd" clip-rule="evenodd" d="M65.5713 24.7117C66.0359 24.8311 66.4797 24.5456 66.5571 24.0722C66.4798 24.545 66.0353 24.831 65.5713 24.7117Z" fill="url(#paint7_linear_66_34)"/>
<path d="M77.0323 11.9253C75.3827 11.7604 72.9344 11.6923 71.2199 13.1518C67.8545 16.0166 67.0181 21.2109 66.6091 23.7509L66.6089 23.7518C66.5909 23.8639 66.5737 23.9708 66.5571 24.0722C66.4798 24.545 66.0353 24.831 65.5713 24.7117L65.4669 24.6848C64.5926 24.4598 63.3746 24.1462 62.3084 24.0471C61.6601 23.9717 60.8217 23.9206 60.0346 23.8727C59.3317 23.8298 58.6698 23.7895 58.2209 23.7366C57.2111 23.6175 55.9459 23.5956 54.6298 23.9783C52.5749 24.5757 50.9766 25.0672 50.0682 26.0833C49.663 26.5366 48.8067 27.5125 48.8748 29.0067C49.0003 31.7623 49.6641 34.8965 51.37 35.9122C53.3897 37.1147 55.5111 37.6797 57.293 38.1542C57.9916 38.3403 65.0037 38.366 65.5713 38.5573C65.5831 38.5612 59.1869 38.7037 59.1193 38.695C58.7965 38.6534 57.6287 38.5029 56.1854 38.5838L56.1585 38.5854C54.4534 38.681 51.4116 38.8517 50.0682 40.1166C49.663 40.4981 48.7992 41.3688 48.3469 42.7746C47.847 44.3281 47.6127 45.8201 48.0177 46.9101C48.1522 47.2722 48.2799 47.6763 48.4141 48.1009C48.9708 49.8627 49.6389 51.9771 51.3707 52.9097C53.2737 53.9345 54.4754 53.9605 56.0306 53.9941C56.1723 53.9971 56.3168 54.0002 56.4651 54.0042C57.3447 54.0276 58.1807 53.9591 58.933 53.8975C60.5095 53.7684 61.719 53.6693 62.1943 54.5084C62.2875 54.6728 62.245 54.917 62.182 55.2783C62.117 55.6517 62.0303 56.1501 62.0487 56.815L62.0537 56.9932C60.5075 78.6566 73.7345 76.5361 77.3497 75.9565C77.719 75.8973 77.988 75.8542 78.1307 75.8541H78.1492C78.2928 75.8541 78.5531 75.8567 78.912 75.8604L78.9144 75.8604C83.1882 75.9037 99.8179 76.0887 101.878 73.5745C104.111 70.8484 106.854 66.2797 106.854 52.9329C106.854 51.9241 106.108 50.0959 105.558 48.7478C105.359 48.2598 105.186 47.8347 105.083 47.5341C105.035 47.3962 104.965 47.2669 104.867 47.1593C104.465 46.7204 104.039 46.266 103.377 45.9007L103.374 45.8993C102.976 45.68 102.492 45.493 101.878 45.361C100.431 45.0502 98.972 45.1012 97.419 45.1012C92.309 45.1012 90.4954 48.8453 89.9508 49.9697L89.9368 49.9985C89.4748 50.9516 89.1821 51.9853 88.9968 52.9329C88.6713 54.5972 88.677 55.996 88.6779 56.227L88.678 56.2493C88.678 59.8967 82.6941 58.6086 82.69 58.073C82.6587 54.0525 87.892 52.7749 88.9968 52.9329C89.1821 51.9853 89.4748 50.9516 89.9368 49.9985L89.9508 49.9697C90.4954 48.8453 92.309 45.1012 97.419 45.1012C98.972 45.1012 100.431 45.0502 101.878 45.361C102.492 45.493 102.976 45.68 103.374 45.8993L103.377 45.9007C103.749 45.3097 104.113 44.4956 104.211 43.8449C104.356 42.8919 104.473 42.0419 104.366 41.1475C104.251 40.1795 102.681 39.2697 101.453 38.5573C100.988 38.288 100.572 38.0469 100.302 37.8415C100.096 37.6847 99.8706 37.5236 99.6147 37.4825C97.6488 37.1662 95.545 37.4681 95.09 37.5412C95.0291 37.551 94.969 37.556 94.9074 37.5556L84.0577 37.4825C83.0311 37.5877 83.5178 36.3179 84.5137 36.0471C86.1974 35.5894 93.7422 35.9148 95.4559 35.9122C95.9078 35.9115 96.4939 35.9758 97.145 36.0471C99.5004 36.3053 102.706 36.6566 103.476 34.3648C107.31 22.9666 99.5593 22.5106 83.4679 25.194C83.2857 25.2244 83.3196 24.9359 83.3727 24.4842C83.4072 24.1906 83.4498 23.8279 83.4464 23.4389C83.4213 20.5507 83.3635 17.9146 81.1456 15.0983L81.1143 15.0586C79.8131 13.4062 78.7849 12.1006 77.0323 11.9253Z" fill="url(#paint8_linear_66_34)"/>
<path d="M88.678 56.2493C88.678 59.8967 82.6941 58.6086 82.69 58.073C82.6587 54.0525 87.892 52.7749 88.9968 52.9329M88.678 56.2493C88.678 56.2438 88.678 56.2363 88.6779 56.227M88.678 56.2493L88.6779 56.227M103.377 45.9007C103.749 45.3097 104.113 44.4956 104.211 43.8449C104.356 42.8919 104.473 42.0419 104.366 41.1475C104.251 40.1795 102.681 39.2697 101.453 38.5573C100.988 38.288 100.572 38.0469 100.302 37.8415M103.377 45.9007C104.039 46.266 104.465 46.7204 104.867 47.1593M103.377 45.9007L103.374 45.8993M88.9968 52.9329C89.1821 51.9853 89.4748 50.9516 89.9368 49.9985L89.9508 49.9697C90.4954 48.8453 92.309 45.1012 97.419 45.1012C98.972 45.1012 100.431 45.0502 101.878 45.361C102.492 45.493 102.976 45.68 103.374 45.8993M88.9968 52.9329C88.6713 54.5972 88.677 55.996 88.6779 56.227M66.5571 24.0722C66.4797 24.5456 66.0359 24.8311 65.5713 24.7117M66.5571 24.0722V24.0722C66.4798 24.545 66.0353 24.831 65.5713 24.7117V24.7117M66.5571 24.0722C66.5737 23.9708 66.5909 23.8639 66.6089 23.7518L66.6091 23.7509C67.0181 21.2109 67.8545 16.0166 71.2199 13.1518C72.9344 11.6923 75.3827 11.7604 77.0323 11.9253C78.7849 12.1006 79.8131 13.4062 81.1143 15.0586L81.1456 15.0983C83.3635 17.9146 83.4213 20.5507 83.4464 23.4389C83.4498 23.8279 83.4072 24.1906 83.3727 24.4842C83.3196 24.9359 83.2857 25.2244 83.4679 25.194C99.5593 22.5106 107.31 22.9666 103.476 34.3648C102.706 36.6566 99.5004 36.3053 97.145 36.0471C96.4939 35.9758 95.9078 35.9115 95.4559 35.9122C93.7422 35.9148 86.1974 35.5894 84.5137 36.0471C83.5178 36.3179 83.0311 37.5877 84.0577 37.4825L94.9074 37.5556C94.969 37.556 95.0291 37.551 95.09 37.5412C95.545 37.4681 97.6488 37.1662 99.6147 37.4825M99.6147 37.4825C99.8706 37.5236 100.096 37.6847 100.302 37.8415M99.6147 37.4825V37.4825C99.8704 37.5236 100.096 37.6848 100.302 37.8415V37.8415M104.867 47.1593C104.965 47.2669 105.035 47.3962 105.083 47.5341M104.867 47.1593V47.1593C104.965 47.2666 105.036 47.3966 105.083 47.5341V47.5341M104.867 47.1593C104.465 46.7198 104.038 46.2647 103.374 45.8993M105.083 47.5341C105.186 47.8347 105.359 48.2598 105.558 48.7478C106.108 50.0959 106.854 51.9241 106.854 52.9329C106.854 66.2797 104.111 70.8484 101.878 73.5745C99.8179 76.0887 83.1882 75.9037 78.9144 75.8604L78.912 75.8603C78.5531 75.8567 78.2928 75.8541 78.1492 75.8541H78.1307C77.988 75.8542 77.719 75.8973 77.3497 75.9565C73.7345 76.5361 60.5075 78.6566 62.0537 56.9932L62.0487 56.815C62.0303 56.1501 62.117 55.6517 62.182 55.2783C62.245 54.917 62.2875 54.6728 62.1943 54.5084C61.719 53.6693 60.5095 53.7684 58.933 53.8975C58.1807 53.9591 57.3447 54.0276 56.4651 54.0042C56.3168 54.0002 56.1723 53.9971 56.0306 53.9941C54.4754 53.9605 53.2737 53.9345 51.3707 52.9097C49.6389 51.9771 48.9708 49.8627 48.4141 48.1009C48.2799 47.6763 48.1522 47.2722 48.0177 46.9101C47.6127 45.8201 47.847 44.3281 48.3469 42.7746C48.7992 41.3688 49.663 40.4981 50.0682 40.1166C51.4116 38.8517 54.4534 38.681 56.1585 38.5854L56.1854 38.5838C57.6287 38.5029 58.7965 38.6534 59.1193 38.695C59.1869 38.7037 65.5831 38.5612 65.5713 38.5573C65.0037 38.366 57.9916 38.3403 57.293 38.1542C55.5111 37.6797 53.3897 37.1147 51.37 35.9122C49.6641 34.8965 49.0003 31.7623 48.8748 29.0067C48.8067 27.5125 49.663 26.5366 50.0682 26.0833C50.9766 25.0672 52.5749 24.5757 54.6298 23.9783C55.9459 23.5956 57.2111 23.6175 58.2209 23.7366C58.6698 23.7895 59.3317 23.8298 60.0346 23.8727C60.8217 23.9206 61.6601 23.9717 62.3084 24.0471C63.3746 24.1462 64.5926 24.4598 65.4669 24.6848M65.5713 24.7117C65.5371 24.7029 65.5023 24.6939 65.4669 24.6848M65.5713 24.7117L65.4669 24.6848" stroke="#390F0F" stroke-width="2" stroke-linecap="round"/>
<path d="M133.418 67.8034C133.34 70.9107 133.495 72.2701 133.736 74.0443C133.485 75.1603 133.225 75.5666 132.392 75.9789C130.115 76.8205 127.663 77.2381 125.514 77.3242C121.259 77.9165 117.909 76.9574 116.752 79.8199C116.293 80.9564 116.437 81.8787 116.504 82.7307C116.718 85.439 115.887 89.9425 118.113 91.4175C118.998 92.0047 120.802 92.1781 123.179 91.6643C127.131 90.81 131.815 88.3627 133.172 89.0534C133.509 89.2255 133.76 89.5597 133.885 89.8988C134.011 90.238 134.092 90.7023 133.752 90.8252C131.889 91.4985 126.333 93.128 122.95 93.7765C120.758 94.1967 117.414 93.0597 116.838 95.2167C116.546 96.3127 116.928 97.6499 116.928 100.071C116.928 104.446 117.816 107.029 118.406 107.786C118.996 108.543 119.761 109.617 120.813 109.554C123.835 109.373 127.794 108.092 131.238 107.483C133.854 107.019 136.952 104.934 138.108 106.857C139.073 108.462 140.3 112.833 140.635 116.057C140.845 118.08 140.527 120.268 142.327 122.383C143.042 123.224 143.954 124.021 145.242 123.98C148.028 123.892 153.946 123.41 155.909 120.727C156.371 120.095 156.396 118.713 155.945 116.419C155.439 113.843 153.14 110.634 153.884 105.703C154.017 104.822 154.505 104.518 154.94 104.446C155.697 104.321 156.641 104.269 158.113 103.938C162.035 103.056 169.596 103.067 171.307 99.2083C171.81 98.0718 171.912 96.8185 171.723 95.3281C171.471 93.3462 171.485 89.0599 169.102 87.6537C168.176 87.107 166.969 86.6863 165.683 86.8994C161.296 87.6259 155.125 89.363 153.198 89.1749C152.731 89.1294 151.988 88.075 151.756 87.6537C151.516 87.2179 149.914 85.8131 152.452 85.7369C156.711 85.609 168.359 82.9195 169.278 80.2236C169.274 77.4659 169.26 72.55 167.375 71.2001C165.548 69.8928 163.198 68.9573 161.676 69.1803C157.849 69.7409 151.732 73.2347 148.134 72.9757C147.501 72.9302 146.961 72.709 146.875 72.081C146.666 70.5636 147.358 67.6333 144.336 64.9103C143.032 63.7346 141.538 62.881 140.078 62.6829C139.154 62.5576 137.56 62.5996 135.857 63.5751C134.681 64.2484 133.473 65.6431 133.418 67.8034Z" fill="url(#paint9_linear_66_34)"/>
<path d="M133.757 74.2008C133.504 72.348 133.337 71.0015 133.418 67.8034C133.473 65.6431 134.681 64.2484 135.857 63.5751C137.56 62.5996 139.154 62.5576 140.078 62.6829C141.538 62.881 143.032 63.7346 144.336 64.9103C147.358 67.6333 146.666 70.5636 146.875 72.081C146.961 72.709 147.501 72.9302 148.134 72.9757C151.732 73.2347 157.849 69.7409 161.676 69.1803C163.198 68.9573 165.548 69.8928 167.375 71.2001C169.26 72.55 169.274 77.4659 169.278 80.2236M169.278 80.2236C169.279 81.0222 169.569 79.3693 169.278 80.2236ZM169.278 80.2236C168.359 82.9195 156.711 85.609 152.452 85.7369C149.914 85.8131 151.516 87.2179 151.756 87.6537C151.988 88.075 152.731 89.1294 153.198 89.1749C155.125 89.363 161.296 87.6259 165.683 86.8994C166.969 86.6864 168.176 87.107 169.102 87.6537C171.485 89.0599 171.471 93.3462 171.723 95.3281C171.912 96.8185 171.81 98.0718 171.307 99.2083C169.596 103.067 162.035 103.056 158.113 103.938C156.641 104.269 155.697 104.321 154.94 104.446C154.505 104.518 154.017 104.822 153.884 105.703C153.14 110.634 155.439 113.843 155.945 116.419C156.396 118.713 156.371 120.095 155.909 120.727C153.946 123.41 148.028 123.892 145.242 123.98C143.954 124.021 143.042 123.224 142.327 122.383C140.527 120.268 140.845 118.08 140.635 116.057C140.3 112.833 139.073 108.462 138.108 106.857C136.952 104.934 133.854 107.019 131.238 107.483C127.794 108.092 123.835 109.373 120.813 109.554C119.761 109.617 118.996 108.543 118.406 107.786C117.816 107.029 116.928 104.446 116.928 100.071C116.928 97.6499 116.546 96.3127 116.838 95.2167C117.414 93.0597 120.758 94.1967 122.95 93.7765C126.333 93.128 131.889 91.4985 133.752 90.8252C134.092 90.7023 134.011 90.238 133.885 89.8988C133.76 89.5597 133.509 89.2255 133.172 89.0534C131.815 88.3627 127.131 90.81 123.179 91.6643C120.802 92.1781 118.998 92.0047 118.113 91.4175C115.887 89.9425 116.718 85.439 116.504 82.7307C116.437 81.8787 116.293 80.9564 116.752 79.8199C117.909 76.9574 121.259 77.9165 125.514 77.3242C127.663 77.2381 130.115 76.8205 132.392 75.9789C133.249 75.5549 133.499 75.1373 133.757 73.9477" stroke="#390F0F" stroke-width="2" stroke-linecap="round"/>
<path d="M96.481 89.2763C91.8795 89.1554 88.8564 89.076 85.7172 89.076C85.0379 89.1181 83.2565 89.7373 82.7905 89.9886C81.9893 90.6487 81.9608 93.5724 81.6109 95.768C81.4002 97.0905 80.5016 101.609 88.1373 101.419C90.0559 101.371 92.864 101.864 93.4232 103.778C93.9299 105.511 94.8608 107.14 93.7127 108.772C93.163 109.553 92.6839 110.558 91.7637 111.04C90.1969 111.861 88.3506 112.362 86.5121 112.274C83.066 112.109 78.4985 110.988 77.078 112.03C76.4025 112.525 75.1091 113.641 75.0083 115.212C74.7975 118.499 74.1019 122.733 74.7594 124.128C74.9753 124.587 75.3379 125.283 76.0787 125.529C77.6849 126.063 79.8175 126.171 81.9207 126.268C84.5389 126.39 85.8983 126.59 88.6084 126.349C92.7719 125.978 96.9843 126.281 99.0151 126.184C101.563 126.063 106.925 124.978 113.616 124.863C120.721 124.74 126.013 124.935 126.351 124.158C126.603 123.581 126.326 121.926 126.392 117.796C126.43 115.393 126.401 114.173 125.339 113.208C123.936 111.932 123.405 112.42 121.073 112.274C117.794 112.068 111.457 113.165 110.234 112.274C106.447 109.513 109.134 101.68 111.149 101.419C113.693 101.089 115.014 101.127 116.638 101.047C119.183 100.922 122.128 89.2815 119.383 89.2816C115.404 89.2816 113.204 89.1253 108.429 89.2419C105.083 89.3237 99.9703 89.3679 96.6814 89.2815L96.481 89.2763Z" fill="url(#paint10_linear_66_34)" stroke="#390F0F" stroke-width="2" stroke-linecap="round"/>
<path d="M61.5772 69.7625C56.1684 70.5179 50.5889 71.3982 46.6509 71.3437C46.0504 71.4295 45.4864 71.683 44.7045 71.683C39.0485 71.683 38.4065 72.1836 36.0061 72.2719C35.4599 72.4434 34.9791 72.7565 34.9604 73.4573C34.8796 76.479 33.6615 79.7195 35.4712 81.5221C36.1435 82.1918 37.4589 83.0419 39.0485 83.0733C41.0301 83.1124 43.0311 82.9001 44.5141 82.6924C46.9183 82.3557 49.5646 81.4893 50.4791 82.6142C50.6873 82.8702 50.7667 83.3658 50.4728 83.5802L50.4577 83.5913C49.8242 84.054 48.6753 84.8932 41.2938 84.4163C38.0533 84.207 33.8538 83.2954 32.7302 85.0519C32.3543 85.6396 32.3693 86.6452 32.3127 88.6385C32.1853 93.1255 30.3016 97.6627 33.3799 97.9152C37.4074 98.2456 41.0158 98.5057 44.1369 97.7828C46.4944 97.2367 48.6506 96.0618 50.1461 96.7373C50.5258 96.9088 50.9403 97.2157 51.0253 97.6226C51.1918 98.4196 51.4507 99.5258 50.7667 100.442C48.5631 103.396 45.7181 106.229 43.1947 107.289C41.0907 108.173 37.972 108.237 37.3961 110.237C36.5598 113.142 36.7227 118.23 38.9627 120.787C39.8444 121.793 41.1724 123.107 43.008 122.924C47.776 122.449 53.6762 120.349 55.9069 117.998C57.423 116.4 59.3537 114.784 60.994 112.533C62.4686 110.509 64.579 108.581 65.3243 105.927C66.3284 102.352 66.4214 99.9195 67.6465 99.8005C69.7896 99.5925 71.5475 99.3816 72.3464 99.4247C75.4507 99.5925 83.092 101.657 86.0551 98.8307C86.8485 98.0741 90.4509 87.1006 85.9113 84.5387C85.3147 84.202 84.4043 83.8708 83.7695 83.8703C82.131 83.869 77.4062 83.6742 74.3962 83.9132C72.7917 84.0405 70.7516 85.2026 68.9722 84.7934C68.5938 84.7064 68.3441 84.4567 68.2192 84.1603C68.0943 83.864 68.0943 83.531 68.223 83.1502C68.3516 82.7693 68.5737 82.2298 69.2409 82.1451C70.8795 81.937 72.2157 81.8202 73.0213 81.6835C75.5112 81.2611 78.908 80.0608 81.9329 79.1159C83.8751 78.5093 84.3979 77.5515 84.3791 76.8693C84.335 75.2652 85.9113 66.383 74.3962 68.3995C71.6202 68.8857 64.3981 69.3685 61.5772 69.7625Z" fill="url(#paint11_linear_66_34)"/>
<path d="M46.662 70.5357C46.6546 71.0744 46.6471 71.6131 46.6397 72.1518C48.7331 72.1737 50.7787 71.9825 52.8096 71.758C55.378 71.4674 57.9264 71.1247 60.4695 70.7985C60.8798 70.7457 61.2902 70.6933 61.6999 70.6414C63.2538 70.455 64.8765 70.3371 66.4794 70.1991C69.1611 69.962 71.8085 69.7979 74.5661 69.3696C74.6755 69.3507 74.7835 69.3327 74.8902 69.3158C78.0813 68.764 81.8293 69.0927 82.8955 71.9309C83.3875 73.0893 83.4766 74.4734 83.4118 75.8937C83.4012 76.2066 83.3751 76.4842 83.3795 76.8968C83.4724 77.1796 82.6283 77.899 81.6348 78.1614C81.0229 78.3526 80.4142 78.5482 79.8082 78.7433C79.0645 78.9829 78.3243 79.222 77.5852 79.4532C76.0004 79.945 74.4074 80.4264 72.854 80.6976C71.6952 80.8771 70.3814 80.9868 69.1149 81.1531C68.9442 81.1747 68.7635 81.2172 68.5848 81.2886C67.7811 81.5939 67.4086 82.3978 67.2756 82.8301C67.1152 83.2833 67.037 83.9508 67.2977 84.5486C67.527 85.1358 68.1304 85.6441 68.7481 85.768C68.9184 85.8071 69.0886 85.8349 69.257 85.853C69.8921 85.9203 70.4882 85.8546 71.0356 85.751C71.4026 85.6809 71.7513 85.5918 72.0867 85.4989C72.4186 85.4068 72.7382 85.3104 73.0463 85.2217C73.5635 85.0728 74.0613 84.9427 74.4753 84.91C75.6823 84.8167 76.9324 84.7972 78.179 84.7943C80.0291 84.7894 81.8657 84.8507 83.7687 84.8703C84.1719 84.872 84.9137 85.1232 85.4198 85.4096C85.6758 85.5542 85.8972 85.7356 86.0931 85.9589C86.4472 86.3611 86.7057 86.9017 86.8737 87.5038C87.7126 90.7949 86.5519 95.4566 85.365 98.1071C84.7368 98.7132 83.7306 99.0484 82.6612 99.1954C79.4256 99.6105 76.0714 98.7671 72.4004 98.4262C71.0391 98.4068 69.9881 98.5736 68.8299 98.6775C68.4013 98.7209 67.9762 98.7638 67.5499 98.8052C66.964 98.8418 66.4106 99.2659 66.1706 99.6157C65.9091 99.972 65.7797 100.293 65.665 100.594C65.4459 101.197 65.3191 101.743 65.1883 102.285C64.9178 103.444 64.6723 104.557 64.3616 105.657C64.1109 106.554 63.6554 107.412 63.086 108.239C62.2508 109.461 61.1753 110.597 60.1857 111.944C59.6264 112.712 59.0015 113.44 58.3336 114.146C57.3428 115.2 56.2497 116.191 55.1815 117.31C54.6569 117.86 53.9423 118.354 53.1984 118.782C50.1072 120.5 46.469 121.537 42.9088 121.929C42.3544 121.986 41.8187 121.849 41.2892 121.535C40.735 121.207 40.219 120.706 39.7149 120.128C39.3191 119.676 38.9968 119.118 38.7455 118.515C37.7757 116.086 37.6852 113.062 38.357 110.514C38.4492 110.193 38.6714 109.942 39.0997 109.696C40.2218 109.066 41.8974 108.895 43.582 108.211C44.2465 107.931 44.8509 107.582 45.4204 107.202C47.8999 105.504 49.8316 103.336 51.5682 101.04C52.036 100.432 52.2298 99.6231 52.2148 98.9541C52.21 98.3731 52.095 97.8519 52.0042 97.4181C51.73 96.4041 51.0782 96.0927 50.5578 95.826C50.4596 95.7816 50.3599 95.7428 50.2595 95.7094C49.6746 95.5158 49.1042 95.5103 48.6035 95.5596C46.7371 95.8051 45.3554 96.4969 43.9113 96.8086C43.4995 96.9039 43.0804 96.9805 42.6561 97.0412C39.7048 97.4503 36.5864 97.1649 33.4616 96.9185C33.2318 96.9005 33.0687 96.8442 32.9816 96.7842C32.5366 96.6507 32.583 94.7791 32.8055 93.3694C33.0069 91.8647 33.2654 90.2979 33.3123 88.6669C33.3248 88.2315 33.3344 87.7986 33.3477 87.3755C33.3642 86.6427 33.4357 85.747 33.5727 85.5908C33.6508 85.4681 33.7876 85.3535 34.0296 85.2524C35.8593 84.641 38.6497 85.2635 41.2293 85.4143C41.6093 85.4388 41.9685 85.4598 42.3434 85.4789C45.146 85.4592 47.8764 86.1808 51.0624 84.388C51.4562 84.1102 51.6392 83.6313 51.659 83.2982C51.6848 82.9516 51.6218 82.672 51.5057 82.3983C51.4453 82.2608 51.3688 82.1241 51.2551 81.9834C50.9337 81.5825 50.479 81.3363 50.0856 81.218C47.6397 80.7463 46.096 81.534 44.3754 81.7021C44.1288 81.7366 43.8803 81.7695 43.6332 81.8C42.1071 81.9879 40.5751 82.1018 39.0682 82.0735C38.9164 82.0705 38.7642 82.0578 38.6123 82.0358C37.7298 81.9115 36.8137 81.4381 36.1769 80.8136C36.1025 80.7395 36.0362 80.6624 35.976 80.5807C35.0931 79.4105 35.6261 77.0981 35.8562 74.9272C35.9066 74.4575 35.9467 73.977 35.96 73.4841C35.9613 73.4359 35.9683 73.4097 35.9717 73.4003C35.9794 73.3867 35.9652 73.3959 36.0118 73.3582C36.0566 73.3238 36.1627 73.27 36.3056 73.226L36.0428 73.2712C36.1677 73.2666 36.2865 73.2611 36.4102 73.2541C39.3868 72.9327 41.8783 72.6414 44.7045 72.683C44.7347 72.683 44.7646 72.6827 44.7943 72.6821C45.616 72.6749 46.3706 72.3877 46.7922 72.3337C46.698 71.6737 46.6037 71.0138 46.5095 70.3538C45.6743 70.4962 45.2176 70.6866 44.7554 70.6825C44.7386 70.6828 44.7216 70.683 44.7045 70.683C41.9237 70.6294 38.8671 70.9739 36.2969 71.2573C36.1869 71.2635 36.0811 71.2685 35.9693 71.2726L35.7065 71.3178C35.196 71.4678 34.3773 71.8763 34.0856 72.7349C34.0006 72.9759 33.9665 73.2131 33.9607 73.4306C33.9496 73.8484 33.9145 74.2771 33.8677 74.7136C33.7601 76.7584 32.7269 79.148 34.3655 81.7666C34.4867 81.9311 34.6203 82.086 34.7655 82.2306C35.7552 83.1867 36.9587 83.8062 38.3256 84.0152C38.5575 84.0488 38.7927 84.0684 39.0288 84.0731C40.6688 84.1035 42.2832 83.981 43.8788 83.7849C44.1369 83.753 44.3961 83.7187 44.6528 83.6827C46.4416 83.4415 48.4058 82.8577 49.4944 83.1286C49.6306 83.1719 49.6752 83.2118 49.7032 83.245C49.6795 83.2153 49.6755 83.204 49.6723 83.1974C49.6688 83.1842 49.6635 83.1916 49.6662 83.1288C49.6647 83.0773 49.7238 82.8834 49.8833 82.7725C48.2495 83.838 45.0407 83.5572 42.4454 83.4815C42.0804 83.4629 41.7299 83.4424 41.3582 83.4184C38.8495 83.3369 36.4084 82.4653 33.2615 83.4058C32.7734 83.6054 32.2354 83.9633 31.8878 84.5131C31.2381 85.7408 31.4238 86.5005 31.3487 87.3117C31.3349 87.7509 31.3255 88.1807 31.3131 88.6101C31.2725 90.0662 31.0323 91.5542 30.8229 93.1061C30.7225 93.8837 30.6187 94.6806 30.627 95.5567C30.6578 96.378 30.7073 97.6266 31.8697 98.4466C32.347 98.7641 32.8543 98.8745 33.2981 98.9118C36.4353 99.154 39.6375 99.4717 42.9392 99.021C43.4142 98.9531 43.8895 98.8666 44.3626 98.757C46.0007 98.3843 47.5231 97.6957 48.8025 97.5497C49.132 97.5159 49.4169 97.5356 49.6281 97.6072C49.6651 97.6195 49.7004 97.6333 49.7345 97.6486C49.9775 97.7374 50.1202 97.9783 50.0464 97.8271C50.1424 98.2751 50.2134 98.6454 50.2149 98.9694C50.2165 99.3477 50.1376 99.6117 49.9652 99.8444C48.3352 102.009 46.4644 104.071 44.3093 105.539C43.8197 105.866 43.315 106.153 42.8073 106.367C41.5038 106.929 39.8529 107.036 38.1082 107.959C37.4335 108.327 36.6818 109.037 36.4351 109.961C35.6414 113.084 35.721 116.236 36.8994 119.284C37.2152 120.04 37.6337 120.786 38.2106 121.446C38.7729 122.087 39.4231 122.752 40.2705 123.256C41.0701 123.741 42.1092 124.03 43.1072 123.919C46.9886 123.48 50.7193 122.434 54.1959 120.516C55.042 120.024 55.8809 119.468 56.6323 118.687C57.6195 117.65 58.7352 116.637 59.7872 115.52C60.4965 114.77 61.1812 113.975 61.8023 113.121C62.6779 111.921 63.7825 110.755 64.7345 109.371C65.381 108.432 65.9587 107.372 66.2871 106.197C66.6145 105.039 66.8727 103.867 67.1345 102.746C67.2579 102.228 67.3845 101.713 67.5404 101.289C67.6161 101.081 67.7082 100.896 67.7715 100.814C67.8508 100.725 67.7764 100.802 67.7432 100.796C68.1744 100.754 68.6026 100.711 69.0312 100.667C70.1465 100.561 71.369 100.406 72.2925 100.423C75.5772 100.71 79.1637 101.647 82.9381 101.176C84.2151 100.991 85.623 100.611 86.7453 99.5544C88.9983 95.1443 89.6602 91.4719 88.7995 86.9638C88.5744 86.1621 88.2081 85.3385 87.5972 84.6407C87.2612 84.2565 86.8565 83.9232 86.4028 83.6678C85.5876 83.2423 84.8803 82.9232 83.7703 82.8703C81.9517 82.8517 80.0533 82.7893 78.1765 82.7943C76.9014 82.7977 75.6232 82.8158 74.3171 82.9163C73.6235 82.9759 73.0431 83.1446 72.4933 83.2997C72.1681 83.3933 71.8557 83.4876 71.5522 83.5717C71.2459 83.6566 70.9483 83.7316 70.6611 83.7863C70.2323 83.8685 69.8265 83.9032 69.4705 83.8644C69.3757 83.8542 69.2844 83.8391 69.1963 83.8188C69.1444 83.7999 69.1688 83.8185 69.1407 83.772C69.1244 83.7308 69.1072 83.6639 69.1704 83.4702C69.2811 83.1372 69.342 83.1397 69.3265 83.146C69.3302 83.1445 69.342 83.1403 69.3669 83.1371C70.6186 82.9719 71.8387 82.8769 73.1886 82.6694C74.9411 82.3613 76.5652 81.8621 78.1822 81.362C78.9335 81.127 79.6787 80.8862 80.4213 80.647C81.0263 80.4522 81.6298 80.2583 82.2311 80.0704C83.3792 79.6483 85.2154 79.1022 85.3787 76.8418C85.375 76.6465 85.3979 76.2906 85.4101 75.9755C85.4754 74.4381 85.4009 72.7518 84.7238 71.152C83.0108 66.9285 77.8714 66.7763 74.5786 67.3699C74.4624 67.3886 74.3449 67.4085 74.2263 67.4295C71.6823 67.8353 68.9696 68.0535 66.3077 68.3271C64.6981 68.4902 63.096 68.6442 61.4544 68.8836C61.0446 68.9462 60.6345 69.0095 60.2251 69.0728C57.6881 69.4646 55.1592 69.8657 52.6288 70.152C50.6314 70.3735 48.6255 70.5572 46.662 70.5357ZM46.6397 72.1518L46.662 70.5357L46.5095 70.3538L46.7922 72.3337L46.6397 72.1518Z" fill="#390F0F"/>
<defs>
<linearGradient id="paint0_linear_66_34" x1="175.138" y1="16.1277" x2="175.138" y2="76.5601" gradientUnits="userSpaceOnUse">
<stop stop-color="#F4E0E0"/>
<stop offset="1" stop-color="#FFB3B3"/>
</linearGradient>
<linearGradient id="paint1_linear_66_34" x1="28.4768" y1="1.53799" x2="28.4768" y2="67.7542" gradientUnits="userSpaceOnUse">
<stop stop-color="#F4E0E0"/>
<stop offset="1" stop-color="#FFB3B3"/>
</linearGradient>
<linearGradient id="paint2_linear_66_34" x1="131.735" y1="2.44986" x2="131.735" y2="66.6659" gradientUnits="userSpaceOnUse">
<stop stop-color="#F4E0E0"/>
<stop offset="1" stop-color="#FFB3B3"/>
</linearGradient>
<linearGradient id="paint3_linear_66_34" x1="131.735" y1="2.44986" x2="131.735" y2="66.6659" gradientUnits="userSpaceOnUse">
<stop stop-color="#F4E0E0"/>
<stop offset="1" stop-color="#FFB3B3"/>
</linearGradient>
<linearGradient id="paint4_linear_66_34" x1="131.735" y1="2.44986" x2="131.735" y2="66.6659" gradientUnits="userSpaceOnUse">
<stop stop-color="#F4E0E0"/>
<stop offset="1" stop-color="#FFB3B3"/>
</linearGradient>
<linearGradient id="paint5_linear_66_34" x1="131.735" y1="2.44986" x2="131.735" y2="66.6659" gradientUnits="userSpaceOnUse">
<stop stop-color="#F4E0E0"/>
<stop offset="1" stop-color="#FFB3B3"/>
</linearGradient>
<linearGradient id="paint6_linear_66_34" x1="131.735" y1="2.44986" x2="131.735" y2="66.6659" gradientUnits="userSpaceOnUse">
<stop stop-color="#F4E0E0"/>
<stop offset="1" stop-color="#FFB3B3"/>
</linearGradient>
<linearGradient id="paint7_linear_66_34" x1="77.3327" y1="11.8409" x2="77.3327" y2="76.2933" gradientUnits="userSpaceOnUse">
<stop stop-color="#F4E0E0"/>
<stop offset="1" stop-color="#FFB3B3"/>
</linearGradient>
<linearGradient id="paint8_linear_66_34" x1="77.3327" y1="11.8409" x2="77.3327" y2="76.2933" gradientUnits="userSpaceOnUse">
<stop stop-color="#F4E0E0"/>
<stop offset="1" stop-color="#FFB3B3"/>
</linearGradient>
<linearGradient id="paint9_linear_66_34" x1="144.12" y1="62.6322" x2="144.12" y2="123.982" gradientUnits="userSpaceOnUse">
<stop stop-color="#F4E0E0"/>
<stop offset="1" stop-color="#FFB3B3"/>
</linearGradient>
<linearGradient id="paint10_linear_66_34" x1="100.471" y1="89.076" x2="100.471" y2="126.462" gradientUnits="userSpaceOnUse">
<stop stop-color="#F4E0E0"/>
<stop offset="1" stop-color="#FFB3B3"/>
</linearGradient>
<linearGradient id="paint11_linear_66_34" x1="59.8936" y1="68.1033" x2="59.8936" y2="122.941" gradientUnits="userSpaceOnUse">
<stop stop-color="#F4E0E0"/>
<stop offset="1" stop-color="#FFB3B3"/>
</linearGradient>
</defs>
</svg>
